<svg width="92" height="92" viewBox="0 0 92 92" fill="none" xmlns="http://www.w3.org/2000/svg">
<path fill-rule="evenodd" clip-rule="evenodd" d="M89.5661 46C89.5661 70.0609 70.0609 89.5661 46 89.5661C21.9391 89.5661 2.43384 70.0609 2.43384 46C2.43384 21.9391 21.9391 2.43384 46 2.43384C70.0609 2.43384 89.5661 21.9391 89.5661 46Z" fill="#F6F6F6"/>
<path fill-rule="evenodd" clip-rule="evenodd" d="M92 46C92 71.4051 71.4051 92 46 92C20.5949 92 0 71.4051 0 46C0 20.5949 20.5949 0 46 0C71.4051 0 92 20.5949 92 46ZM46 87.1323C68.7167 87.1323 87.1323 68.7167 87.1323 46C87.1323 23.2833 68.7167 4.86772 46 4.86772C23.2833 4.86772 4.86772 23.2833 4.86772 46C4.86772 68.7167 23.2833 87.1323 46 87.1323Z" fill="url(#paint0_linear_2_100)"/>
<path fill-rule="evenodd" clip-rule="evenodd" d="M27.5177 20.7771L30.9102 22.7358C33.4209 24.1853 34.2739 27.4003 32.8121 29.9039L31.6669 31.8652C30.2151 34.3515 27.0272 35.1973 24.5338 33.7578L21.1985 31.8321C22.3801 34.9352 25.383 37.14 28.9009 37.14C33.4512 37.14 37.14 33.4512 37.14 28.9009C37.14 24.3506 33.4512 20.6618 28.9009 20.6618C28.4291 20.6618 27.9671 20.7013 27.5177 20.7771ZM22.7745 18.6963C24.5655 17.6191 26.6637 17 28.9009 17C35.4736 17 40.8018 22.3282 40.8018 28.9009C40.8018 29.8848 40.6825 30.8407 40.4574 31.7551L46.3059 37.2688L53.2659 30.3088L53.1886 26.0561C53.1756 25.3417 53.552 24.6768 54.1712 24.3204L66.3778 17.2923C67.1465 16.8497 68.1166 16.978 68.7438 17.6052L74.1998 23.0612C74.8178 23.6792 74.9524 24.6316 74.5299 25.3967L67.6868 37.7883C67.3415 38.4135 66.6837 38.8017 65.9695 38.8017H61.2336L57.7393 42.296C56.9732 43.0621 55.7311 43.0621 54.965 42.296C54.1989 41.5299 54.1989 40.2878 54.965 39.5217L59.0339 35.4529C59.4018 35.085 59.9008 34.8783 60.421 34.8783L64.8119 34.8783L70.382 24.7919L67.0326 21.4425L57.1324 27.1426L57.2038 31.0709C57.2135 31.6034 57.0062 32.117 56.6296 32.4937L49.1619 39.9613L72.4802 61.9449C75.4847 64.7775 75.5547 69.5326 72.6349 72.4524L72.4524 72.6349C69.5326 75.5547 64.7775 75.4847 61.9449 72.4802L48.0474 57.7389L36.8109 70.9583C32.6053 75.9061 25.0722 76.2109 20.4806 71.6193L20.2782 71.4169C15.6865 66.8252 15.9914 59.2921 20.9391 55.0866L34.5999 43.4749L31.7551 40.4574C30.8407 40.6825 29.8848 40.8018 28.9009 40.8018C22.3282 40.8018 17 35.4736 17 28.9009C17 28.8556 17.0003 28.8103 17.0008 28.7651C17.0194 27.1045 18.8051 26.222 20.1301 26.987L26.3647 30.5865C27.1127 31.0184 28.0691 30.7647 28.5047 30.0188L29.6499 28.0574C30.0884 27.3064 29.8325 26.3419 29.0793 25.907L22.8113 22.2882C21.492 21.5265 21.3564 19.5492 22.7745 18.6963ZM37.2948 46.3334L45.3396 54.8667L33.8215 68.4174C31.1003 71.6188 26.2259 71.8161 23.2548 68.8451L23.0524 68.6426C20.0813 65.6715 20.2786 60.7972 23.4801 58.076L37.2948 46.3334ZM35.3337 38.9152C36.7684 37.9917 37.9917 36.7684 38.9152 35.3337L69.9683 64.6094C71.4705 66.0256 71.5055 68.4032 70.0456 69.8631L69.8631 70.0456C68.4032 71.5055 66.0256 71.4705 64.6094 69.9683L35.3337 38.9152ZM28.5086 67.2193C30.531 67.2193 32.1704 65.5798 32.1704 63.5574C32.1704 61.5351 30.531 59.8956 28.5086 59.8956C26.4862 59.8956 24.8468 61.5351 24.8468 63.5574C24.8468 65.5798 26.4862 67.2193 28.5086 67.2193Z" fill="url(#paint1_linear_2_100)"/>
<defs>
<linearGradient id="paint0_linear_2_100" x1="35.6283" y1="122.132" x2="51.1904" y2="-18.3157" gradientUnits="userSpaceOnUse">
<stop stop-color="#410AB4"/>
<stop offset="1" stop-color="#EC0055"/>
</linearGradient>
<linearGradient id="paint1_linear_2_100" x1="39.3761" y1="93.8305" x2="49.1816" y2="5.48149" gradientUnits="userSpaceOnUse">
<stop stop-color="#410AB4"/>
<stop offset="1" stop-color="#EC0055"/>
</linearGradient>
</defs>
</svg>
