<svg width="42" height="42" viewBox="0 0 42 42" fill="none" xmlns="http://www.w3.org/2000/svg">
<path d="M21.9099 35.14H19.7499L19.8099 30.91C16.7199 30.76 14.8599 29.56 13.9299 28.81L15.3699 26.86C16.3899 27.76 18.2799 28.81 20.6799 28.81C23.7999 28.81 24.9999 27.34 24.9999 25.57C24.9999 23.65 23.4099 22.75 21.2199 21.76L19.4199 20.95C16.9899 19.87 15.0699 18.43 15.0699 15.58C15.0699 12.61 17.3799 10.75 20.2599 10.33L20.1999 6.19H22.3599L22.2999 10.27C24.7599 10.45 26.2899 11.38 26.9799 11.92L25.4199 13.78C24.5199 12.91 22.8699 12.37 21.3699 12.37C18.9399 12.37 17.4699 13.54 17.4699 15.46C17.4699 17.32 18.9399 18.25 21.0099 19.21L22.6899 19.99C25.2999 21.22 27.4299 22.42 27.4299 25.36C27.4299 27.88 25.6599 30.37 21.8499 30.85L21.9099 35.14Z" fill="black"/>
<circle cx="21" cy="21" r="20" stroke="black" stroke-width="2"/>
<path d="M7 7L14 14" stroke="black" stroke-width="2"/>
<path d="M28 28L35 35" stroke="black" stroke-width="2"/>
</svg>
