<svg width="209" height="106" viewBox="0 0 209 106" fill="none" xmlns="http://www.w3.org/2000/svg">
<path d="M6.82528 98L0.660511 75.4545H3.43466L8.14631 93.8168H8.36648L13.1662 75.4545H16.2486L21.0483 93.8168H21.2685L25.9801 75.4545H28.7543L22.5895 98H19.7713L14.7955 80.0341H14.6193L9.64347 98H6.82528ZM37.3189 98.3523C35.6896 98.3523 34.2842 97.9927 33.1026 97.2734C31.9284 96.5469 31.022 95.5341 30.3835 94.2351C29.7524 92.9287 29.4368 91.4096 29.4368 89.6776C29.4368 87.9455 29.7524 86.419 30.3835 85.098C31.022 83.7696 31.91 82.7348 33.0476 81.9936C34.1925 81.245 35.5282 80.8707 37.0547 80.8707C37.9354 80.8707 38.805 81.0175 39.6637 81.3111C40.5224 81.6046 41.304 82.0817 42.0085 82.7422C42.7131 83.3954 43.2745 84.2614 43.6928 85.3402C44.1112 86.419 44.3203 87.7474 44.3203 89.3253V90.4261H31.2862V88.1804H41.6783C41.6783 87.2263 41.4875 86.375 41.1058 85.6264C40.7315 84.8778 40.1958 84.287 39.4986 83.854C38.8087 83.421 37.9941 83.2045 37.0547 83.2045C36.0199 83.2045 35.1245 83.4614 34.3686 83.9751C33.62 84.4815 33.0439 85.142 32.6403 85.9567C32.2366 86.7713 32.0348 87.6446 32.0348 88.5767V90.0739C32.0348 91.3509 32.255 92.4334 32.6953 93.3214C33.143 94.2021 33.7631 94.8736 34.5558 95.3359C35.3484 95.791 36.2694 96.0185 37.3189 96.0185C38.0014 96.0185 38.6179 95.9231 39.1683 95.7322C39.7261 95.5341 40.2068 95.2405 40.6104 94.8516C41.0141 94.4553 41.326 93.9635 41.5462 93.3764L44.0561 94.081C43.7919 94.9323 43.3479 95.6809 42.7241 96.3267C42.1003 96.9652 41.3297 97.4643 40.4123 97.8239C39.4949 98.1761 38.4638 98.3523 37.3189 98.3523ZM60.8221 98L55.6701 81.0909H58.4002L62.055 94.0369H62.2312L65.842 81.0909H68.6161L72.1829 93.9929H72.359L76.0139 81.0909H78.744L73.592 98H71.038L67.3391 85.0099H67.0749L63.3761 98H60.8221ZM88.4727 98.3523C86.9462 98.3523 85.6069 97.989 84.4546 97.2624C83.3097 96.5359 82.4144 95.5194 81.7686 94.2131C81.1301 92.9067 80.8108 91.3802 80.8108 89.6335C80.8108 87.8722 81.1301 86.3346 81.7686 85.021C82.4144 83.7073 83.3097 82.6871 84.4546 81.9606C85.6069 81.234 86.9462 80.8707 88.4727 80.8707C89.9993 80.8707 91.335 81.234 92.4798 81.9606C93.6321 82.6871 94.5274 83.7073 95.1659 85.021C95.8118 86.3346 96.1347 87.8722 96.1347 89.6335C96.1347 91.3802 95.8118 92.9067 95.1659 94.2131C94.5274 95.5194 93.6321 96.5359 92.4798 97.2624C91.335 97.989 89.9993 98.3523 88.4727 98.3523ZM88.4727 96.0185C89.6323 96.0185 90.5864 95.7212 91.335 95.1268C92.0835 94.5323 92.6376 93.7507 92.9972 92.782C93.3569 91.8132 93.5367 90.7637 93.5367 89.6335C93.5367 88.5033 93.3569 87.4502 92.9972 86.4741C92.6376 85.498 92.0835 84.709 91.335 84.1072C90.5864 83.5054 89.6323 83.2045 88.4727 83.2045C87.3132 83.2045 86.3591 83.5054 85.6105 84.1072C84.8619 84.709 84.3079 85.498 83.9482 86.4741C83.5886 87.4502 83.4088 88.5033 83.4088 89.6335C83.4088 90.7637 83.5886 91.8132 83.9482 92.782C84.3079 93.7507 84.8619 94.5323 85.6105 95.1268C86.3591 95.7212 87.3132 96.0185 88.4727 96.0185ZM100.1 98V81.0909H102.61V83.6449H102.787C103.095 82.8082 103.653 82.1294 104.46 81.6083C105.267 81.0872 106.177 80.8267 107.19 80.8267C107.381 80.8267 107.619 80.8304 107.906 80.8377C108.192 80.8451 108.408 80.8561 108.555 80.8707V83.5128C108.467 83.4908 108.265 83.4577 107.95 83.4137C107.641 83.3623 107.315 83.3366 106.97 83.3366C106.148 83.3366 105.414 83.5091 104.768 83.854C104.13 84.1916 103.623 84.6613 103.249 85.2631C102.882 85.8576 102.699 86.5365 102.699 87.2997V98H100.1ZM114.057 91.8352L114.013 88.6207H114.541L121.939 81.0909H125.153L117.271 89.0611H117.051L114.057 91.8352ZM111.635 98V75.4545H114.233V98H111.635ZM122.379 98L115.774 89.6335L117.623 87.8281L125.682 98H122.379ZM139.814 87.8281V98H137.216V75.4545H139.814V83.733H140.034C140.43 82.8596 141.025 82.1661 141.817 81.6523C142.617 81.1313 143.681 80.8707 145.01 80.8707C146.162 80.8707 147.171 81.1019 148.037 81.5643C148.903 82.0193 149.575 82.7202 150.052 83.6669C150.536 84.6063 150.778 85.8026 150.778 87.2557V98H148.18V87.4318C148.18 86.0888 147.832 85.0503 147.134 84.3164C146.445 83.5752 145.487 83.2045 144.261 83.2045C143.41 83.2045 142.647 83.3844 141.971 83.744C141.304 84.1036 140.775 84.6283 140.386 85.3182C140.005 86.008 139.814 86.8447 139.814 87.8281ZM162.621 98.3523C160.991 98.3523 159.586 97.9927 158.404 97.2734C157.23 96.5469 156.324 95.5341 155.685 94.2351C155.054 92.9287 154.739 91.4096 154.739 89.6776C154.739 87.9455 155.054 86.419 155.685 85.098C156.324 83.7696 157.212 82.7348 158.349 81.9936C159.494 81.245 160.83 80.8707 162.356 80.8707C163.237 80.8707 164.107 81.0175 164.965 81.3111C165.824 81.6046 166.606 82.0817 167.31 82.7422C168.015 83.3954 168.576 84.2614 168.995 85.3402C169.413 86.419 169.622 87.7474 169.622 89.3253V90.4261H156.588V88.1804H166.98C166.98 87.2263 166.789 86.375 166.408 85.6264C166.033 84.8778 165.498 84.287 164.8 83.854C164.11 83.421 163.296 83.2045 162.356 83.2045C161.322 83.2045 160.426 83.4614 159.67 83.9751C158.922 84.4815 158.346 85.142 157.942 85.9567C157.538 86.7713 157.337 87.6446 157.337 88.5767V90.0739C157.337 91.3509 157.557 92.4334 157.997 93.3214C158.445 94.2021 159.065 94.8736 159.858 95.3359C160.65 95.791 161.571 96.0185 162.621 96.0185C163.303 96.0185 163.92 95.9231 164.47 95.7322C165.028 95.5341 165.509 95.2405 165.912 94.8516C166.316 94.4553 166.628 93.9635 166.848 93.3764L169.358 94.081C169.094 94.9323 168.65 95.6809 168.026 96.3267C167.402 96.9652 166.631 97.4643 165.714 97.8239C164.797 98.1761 163.766 98.3523 162.621 98.3523ZM173.574 98V81.0909H176.084V83.6449H176.26C176.568 82.8082 177.126 82.1294 177.934 81.6083C178.741 81.0872 179.651 80.8267 180.664 80.8267C180.854 80.8267 181.093 80.8304 181.379 80.8377C181.665 80.8451 181.882 80.8561 182.029 80.8707V83.5128C181.941 83.4908 181.739 83.4577 181.423 83.4137C181.115 83.3623 180.788 83.3366 180.443 83.3366C179.621 83.3366 178.888 83.5091 178.242 83.854C177.603 84.1916 177.097 84.6613 176.723 85.2631C176.356 85.8576 176.172 86.5365 176.172 87.2997V98H173.574ZM191.683 98.3523C190.054 98.3523 188.648 97.9927 187.467 97.2734C186.293 96.5469 185.386 95.5341 184.748 94.2351C184.117 92.9287 183.801 91.4096 183.801 89.6776C183.801 87.9455 184.117 86.419 184.748 85.098C185.386 83.7696 186.274 82.7348 187.412 81.9936C188.557 81.245 189.892 80.8707 191.419 80.8707C192.3 80.8707 193.169 81.0175 194.028 81.3111C194.887 81.6046 195.668 82.0817 196.373 82.7422C197.077 83.3954 197.639 84.2614 198.057 85.3402C198.475 86.419 198.685 87.7474 198.685 89.3253V90.4261H185.65V88.1804H196.043C196.043 87.2263 195.852 86.375 195.47 85.6264C195.096 84.8778 194.56 84.287 193.863 83.854C193.173 83.421 192.358 83.2045 191.419 83.2045C190.384 83.2045 189.489 83.4614 188.733 83.9751C187.984 84.4815 187.408 85.142 187.005 85.9567C186.601 86.7713 186.399 87.6446 186.399 88.5767V90.0739C186.399 91.3509 186.619 92.4334 187.06 93.3214C187.507 94.2021 188.127 94.8736 188.92 95.3359C189.713 95.791 190.634 96.0185 191.683 96.0185C192.366 96.0185 192.982 95.9231 193.533 95.7322C194.09 95.5341 194.571 95.2405 194.975 94.8516C195.378 94.4553 195.69 93.9635 195.91 93.3764L198.42 94.081C198.156 94.9323 197.712 95.6809 197.088 96.3267C196.465 96.9652 195.694 97.4643 194.777 97.8239C193.859 98.1761 192.828 98.3523 191.683 98.3523Z" fill="black"/>
<path d="M116.964 0.911093C116.639 0.654599 116.168 0.710333 115.911 1.03558L111.731 6.33574C111.475 6.66099 111.531 7.13258 111.856 7.38907C112.181 7.64556 112.653 7.58983 112.909 7.26459L116.624 2.55333L121.336 6.26871C121.661 6.5252 122.133 6.46947 122.389 6.14423C122.646 5.81898 122.59 5.34739 122.265 5.0909L116.964 0.911093ZM205.71 82.7176C208.232 74.3995 208.853 67.6836 207.941 62.2031C207.026 56.7046 204.574 52.4903 201.032 49.186C194.005 42.631 182.713 39.6962 170.844 37.1418C158.882 34.5671 146.272 32.3687 136.215 27.4056C126.225 22.4759 118.834 14.8558 117.245 1.41198L115.755 1.58802C117.416 15.6442 125.213 23.6491 135.551 28.7507C145.821 33.8188 158.679 36.0579 170.529 38.6082C182.472 41.1788 193.334 44.0565 200.009 50.2828C203.317 53.3691 205.602 57.2875 206.461 62.4493C207.323 67.6289 206.755 74.1005 204.274 82.2824L205.71 82.7176Z" fill="black"/>
</svg>
