<svg width="92" height="84" viewBox="0 0 92 84" fill="none" xmlns="http://www.w3.org/2000/svg">
<path fill-rule="evenodd" clip-rule="evenodd" d="M21.746 40.6665C22.9094 40.3037 24.1465 40.9527 24.5093 42.116C24.997 43.68 26.87 45.2436 29.6722 45.9862C32.428 46.7164 35.2421 46.4102 36.957 45.2064C37.9544 44.5063 39.3305 44.7473 40.0307 45.7447C40.7308 46.7421 40.4898 48.1182 39.4924 48.8183C36.3662 51.0129 32.081 51.1897 28.5419 50.2519C25.0493 49.3264 21.432 47.0712 20.2965 43.4298C19.9337 42.2664 20.5827 41.0293 21.746 40.6665Z" fill="black"/>
<path fill-rule="evenodd" clip-rule="evenodd" d="M65.4955 47.8065C67.7258 47.0854 69.7407 45.2537 71.0864 42.4575C68.766 40.9119 66.1406 40.2018 63.797 40.5818C61.4758 40.9582 59.0462 42.4677 57.2691 46.1416C60.4491 48.2635 63.2724 48.5252 65.4955 47.8065ZM75.7336 42.8011C75.9354 42.2653 75.9152 41.7003 75.7188 41.2073C75.642 40.679 75.3744 40.1769 74.9277 39.8135C71.6616 37.1569 67.3442 35.536 63.0906 36.2258C58.6972 36.9382 54.8766 40.0298 52.6188 45.7722C52.4051 46.3157 52.4219 46.8929 52.6222 47.3957C52.7009 47.9366 52.9794 48.4493 53.4433 48.8134C57.9521 52.3526 62.6759 53.3559 66.853 52.0054C70.9687 50.6749 74.072 47.2124 75.7336 42.8011ZM65.1206 47.6537C66.9209 47.1713 67.9893 45.3208 67.5069 43.5205C67.0245 41.7202 65.174 40.6519 63.3738 41.1343C61.5735 41.6166 60.5051 43.4671 60.9875 45.2674C61.4699 47.0677 63.3203 48.136 65.1206 47.6537Z" fill="black"/>
<path fill-rule="evenodd" clip-rule="evenodd" d="M75.9815 0.699842C78.2709 -0.265993 80.8698 1.11307 81.3537 3.54996L92 57.1709L88.7904 58.1219L88.7897 58.1221L88.7866 58.123L88.7846 58.1237L88.769 58.1284C88.7467 58.1353 88.7074 58.1475 88.6516 58.1654C88.5399 58.201 88.3623 58.2591 88.1223 58.3416C87.6422 58.5066 86.9132 58.7692 85.965 59.1455C84.0682 59.8982 81.2964 61.1051 77.8875 62.8943C71.0695 66.4728 61.7103 72.3771 51.705 81.6326C48.5277 84.5718 43.5962 84.5713 40.419 81.6337C30.4105 72.3799 21.0226 66.4761 14.1761 62.8973C10.753 61.108 7.96714 59.9009 6.05985 59.148C5.10634 58.7715 4.37289 58.5088 3.88975 58.3437C3.6482 58.2611 3.46928 58.203 3.35678 58.1673C3.30053 58.1494 3.2609 58.1372 3.23834 58.1303C3.22743 58.1269 3.22051 58.1249 3.21766 58.124L3.21739 58.1239L3.21664 58.1237L0 57.1765L10.6474 3.55011C11.1312 1.11299 13.7303 -0.265961 16.0196 0.699845L19.9389 2.35331C23.1574 3.71109 25.7233 6.26487 27.0964 9.47683L31.4502 19.6617H60.5509L64.9047 9.47683C66.2778 6.26487 68.8437 3.71109 72.0621 2.35331L75.9815 0.699842ZM83.5156 52.2052L74.9598 9.11351L74.921 9.12989C73.4581 9.74706 72.2918 10.9079 71.6676 12.3679L65.4055 27.0167H26.5955L20.3335 12.3679C19.7093 10.9079 18.543 9.74706 17.0801 9.12989L17.0413 9.11351L8.4867 52.1994C8.57627 52.2343 8.66757 52.2701 8.76058 52.3068C10.889 53.1471 13.9123 54.4603 17.5832 56.3791C24.9247 60.2166 34.864 66.4806 45.4121 76.2333C45.7709 76.5651 46.3526 76.5646 46.7105 76.2335C57.251 66.4829 67.1578 60.2195 74.4694 56.3819C78.1253 54.463 81.1342 53.1497 83.2519 52.3092C83.3414 52.2737 83.4293 52.2391 83.5156 52.2052Z" fill="black"/>
<path fill-rule="evenodd" clip-rule="evenodd" d="M41.4698 64.5269H50.6046C52.3614 64.5269 53.2321 66.6591 51.9775 67.8889L47.4995 72.2783C47.3906 72.385 47.3169 72.5262 47.3169 72.6787V77.5206C47.3169 78.1976 46.768 78.7465 46.091 78.7465C45.414 78.7465 44.8652 78.1976 44.8652 77.5206V72.4919C44.8652 72.4207 44.8332 72.3537 44.7813 72.3049L40.1245 67.9154C38.8326 66.6977 39.6944 64.5269 41.4698 64.5269Z" fill="black"/>
</svg>
